<svg width="811" height="811" viewBox="0 0 811 811" fill="none" xmlns="http://www.w3.org/2000/svg">
<path d="M556.94 320.472L422.592 211.046C412.566 202.739 397.957 202.739 387.931 211.046L253.584 320.758C248.141 325.055 248.141 333.649 253.584 337.945L295.693 372.32C301.708 377.19 310.302 377.19 316.604 372.32L405.119 300.133L493.633 372.606C499.649 377.476 508.242 377.476 514.544 372.606L556.653 338.232C562.382 333.362 562.382 325.055 556.94 320.472Z" fill="url(#paint0_linear_99_19)"/>
<path d="M691.574 430.757L806.729 337.086C812.171 332.789 812.171 324.195 806.729 319.899L422.593 6.2304C412.567 -2.0768 397.958 -2.0768 387.932 6.2304L4.08198 319.326C-1.36066 323.623 -1.36066 332.216 4.08198 336.513L119.237 430.47L4.08198 524.427C-1.36066 528.724 -1.36066 537.318 4.08198 541.615L330.927 808.304C338.088 814.034 348.687 809.164 348.687 799.711V528.438C348.687 520.131 344.963 512.11 338.375 506.954L244.991 430.757L181.971 379.481L127.544 334.508C123.534 331.357 123.534 325.055 127.544 321.617L395.093 103.339C401.109 98.4689 409.702 98.4689 416.004 103.339L683.553 321.617C687.564 324.768 687.564 331.07 683.553 334.508L628.84 379.195L565.534 430.757L472.149 506.954C465.561 512.11 461.837 520.131 461.837 528.438V799.711C461.837 808.877 472.722 814.034 479.597 808.304L806.442 541.615C811.885 537.318 811.885 528.724 806.442 524.427L691.574 430.757ZM187.413 486.329L263.897 548.776C267.621 551.927 270.199 556.797 270.199 561.667V644.166C270.199 648.749 264.756 651.613 261.319 648.462L127.544 539.323C123.534 536.172 123.534 529.87 127.544 526.433L177.101 486.043C179.965 483.464 184.262 483.464 187.413 486.329ZM540.899 644.166V561.667C540.899 556.797 543.19 551.927 547.201 548.776L623.684 486.329C626.549 483.751 630.845 483.751 633.996 486.329L683.553 526.719C687.564 529.87 687.564 536.172 683.553 539.61L549.779 648.749C546.055 651.327 540.899 649.035 540.899 644.166Z" fill="url(#paint1_linear_99_19)"/>
<defs>
<linearGradient id="paint0_linear_99_19" x1="249.502" y1="204.815" x2="560.987" y2="204.815" gradientUnits="userSpaceOnUse">
<stop stop-color="#7F00FF"/>
<stop offset="1" stop-color="#E100FF"/>
</linearGradient>
<linearGradient id="paint1_linear_99_19" x1="0" y1="0" x2="810.811" y2="0" gradientUnits="userSpaceOnUse">
<stop stop-color="#7F00FF"/>
<stop offset="1" stop-color="#E100FF"/>
</linearGradient>
</defs>
</svg>
